<?xml version="1.0" standalone="no"?>
<svg
  width="600"
  height="600"
  viewBox="0 0 600 600"
  xmlns="http://www.w3.org/2000/svg"
>
  <g transform="translate(300,300)">
    <path d="M127.8,-178C170.6,-171.4,213.5,-144.3,225.8,-106.4C238,-68.5,219.5,-19.8,206.4,25.5C193.4,70.8,185.9,112.7,165.8,153.4C145.7,194.2,113,233.8,74.1,239.1C35.3,244.4,-9.7,215.2,-45.9,189.4C-82,163.6,-109.4,141.1,-130.2,114.3C-150.9,87.6,-165,56.7,-178,20.6C-191,-15.5,-202.8,-56.8,-199,-101.6C-195.2,-146.4,-175.7,-194.8,-139.9,-204.6C-104.2,-214.4,-52.1,-185.7,-4.8,-178.3C42.5,-170.8,85.1,-184.7,127.8,-178Z" fill="#004346" />
  </g>
</svg>
  